<svg xmlns="http://www.w3.org/2000/svg" viewBox="0 0 98 96" aria-hidden="true">
  <path fill="#181717" fill-rule="evenodd" clip-rule="evenodd" d="M48.85 0C21.87 0 0 21.85 0 48.78c0 21.55 13.99 39.82 33.39 46.27 2.44.45 3.34-1.06 3.34-2.35 0-1.16-.04-4.23-.07-8.3-13.58 2.95-16.44-6.53-16.44-6.53-2.22-5.63-5.42-7.13-5.42-7.13-4.43-3.03.34-2.97.34-2.97 4.9.34 7.48 5.03 7.48 5.03 4.35 7.46 11.42 5.3 14.2 4.05.44-3.15 1.7-5.3 3.1-6.52-10.84-1.23-22.24-5.42-22.24-24.12 0-5.33 1.9-9.69 5.03-13.1-.5-1.24-2.18-6.21.48-12.94 0 0 4.1-1.31 13.43 5.01a46.68 46.68 0 0 1 24.44 0c9.33-6.32 13.43-5.01 13.43-5.01 2.66 6.73.98 11.7.48 12.94 3.13 3.41 5.02 7.77 5.02 13.1 0 18.75-11.42 22.88-22.3 24.09 1.75 1.51 3.31 4.49 3.31 9.05 0 6.53-.06 11.8-.06 13.4 0 1.3.88 2.82 3.36 2.34C83.88 88.58 97.7 70.32 97.7 48.78 97.7 21.85 75.83 0 48.85 0Z"/>
</svg>
